# xmcd CD database file
#
# Track frame offsets:
#	150
#	20264
#	45307
#	63195
#	89862
#	117102
#	138103
#	153627
#	187197
#	211798
#
# Disc length: 3132 seconds
#
# Revision: 2
# Processed by: cddbd v1.5.1PL2 Copyright (c) Steve Scherf et al.
# Submitted via: CDex 1.51
#
DISCID=820c3a0a
DTITLE=Quang linh - Bong Chieu lang toi
DYEAR=2003
DGENRE=Other
TTITLE0=Track01
TTITLE1=Track02
TTITLE2=Track03
TTITLE3=Track04
TTITLE4=Track05
TTITLE5=Track06
TTITLE6=Track07
TTITLE7=Track08
TTITLE8=Track09
TTITLE9=Track10
EXTD=YEAR: 2003
EXTT0=
EXTT1=
EXTT2=
EXTT3=
EXTT4=
EXTT5=
EXTT6=
EXTT7=
EXTT8=
EXTT9=
PLAYORDER=
